<?xml version="1.0" standalone="no"?>
<!DOCTYPE svg PUBLIC "-//W3C//DTD SVG 20010904//EN"
 "http://www.w3.org/TR/2001/REC-SVG-20010904/DTD/svg10.dtd">
<svg version="1.0" xmlns="http://www.w3.org/2000/svg"
 width="258.000000pt" height="258.000000pt" viewBox="0 0 258.000000 258.000000"
 preserveAspectRatio="xMidYMid meet">
<metadata>
Created by potrace 1.11, written by Peter Selinger 2001-2013
</metadata>
<g transform="translate(0.000000,258.000000) scale(0.100000,-0.100000)"
fill="#000000" stroke="none">
<path d="M740 2424 c-221 -40 -335 -72 -453 -126 -72 -34 -87 -45 -87 -63 0
-28 53 -132 83 -162 l22 -22 60 38 c82 52 245 123 245 106 0 -4 -14 -54 -30
-111 -30 -103 -171 -446 -365 -892 l-97 -222 38 -50 c42 -55 99 -98 143 -106
28 -6 29 -5 46 68 42 177 160 510 232 651 23 46 25 48 42 33 10 -9 34 -16 54
-16 34 0 37 -2 47 -42 62 -236 145 -489 187 -572 50 -98 100 -146 154 -146 33
0 104 39 140 76 l32 33 -43 48 c-65 74 -150 206 -217 338 -54 106 -119 264
-111 270 2 1 33 9 70 19 105 25 171 53 250 105 163 106 249 261 234 420 -13
146 -109 253 -275 308 -45 15 -342 27 -401 17z m457 -160 c101 -34 143 -91
143 -191 -1 -76 -26 -130 -93 -197 -62 -63 -165 -115 -282 -145 -81 -20 -293
-46 -303 -37 -9 10 127 295 227 472 26 47 37 75 31 84 -5 8 -6 18 -4 22 10 15
230 9 281 -8z"/>
<path d="M1572 1624 c4 -32 -1 -50 -29 -96 -55 -93 -187 -372 -259 -548 -127
-314 -214 -601 -214 -710 0 -53 3 -61 31 -84 30 -25 68 -45 117 -60 21 -7 22
-4 22 46 0 252 124 752 272 1100 54 127 78 161 78 112 0 -76 22 -374 36 -499
31 -277 100 -647 129 -691 8 -13 25 -29 37 -35 36 -20 120 -39 169 -39 l46 0
12 112 c30 281 157 747 275 1013 42 94 113 200 162 244 l45 39 -32 37 c-35 39
-96 75 -128 75 -56 0 -140 -195 -251 -579 -46 -159 -110 -420 -136 -553 -9
-49 -20 -88 -24 -88 -21 0 -68 274 -81 475 -11 157 -6 588 7 632 5 18 -1 26
-27 43 -44 26 -173 76 -223 85 l-39 8 5 -39z"/>
</g>
</svg>
