<svg width="51" height="49" viewBox="0 0 51 49" fill="none" xmlns="http://www.w3.org/2000/svg">
<path d="M29.316 45.718L26.7891 48.209C25.7191 49.2637 23.989 49.2637 22.9304 48.209L0.802477 26.4075C-0.267492 25.3528 -0.267492 23.6472 0.802477 22.6037L22.9304 0.791046C24.0003 -0.263682 25.7305 -0.263682 26.7891 0.791046L29.316 3.282C30.3974 4.34795 30.3746 6.08713 29.2705 7.13064L15.5544 20.0118H48.2682C49.7821 20.0118 51 21.2124 51 22.7047V26.2953C51 27.7876 49.7821 28.9882 48.2682 28.9882H15.5544L29.2705 41.8694C30.386 42.9129 30.4088 44.6521 29.316 45.718Z" fill="#486951"/>
</svg>
