<?xml version="1.0" encoding="UTF-8"?>
<svg width="173.46" height="72.823" version="1.1" viewBox="0 0 173.46 72.823" xmlns="http://www.w3.org/2000/svg">
 <path d="m31.296 8.88c0 1.536-0.352 2.992-1.056 4.368-0.672 1.344-1.616 2.56-2.832 3.648-1.216 1.056-2.64 1.952-4.272 2.688s-3.408 1.232-5.328 1.488c0.48 1.44 1.056 2.928 1.728 4.464 0.704 1.504 1.456 2.96 2.256 4.368s1.632 2.704 2.496 3.888 1.712 2.16 2.544 2.928c-0.16 0.32-0.4 0.64-0.72 0.96-0.288 0.32-0.64 0.608-1.056 0.864-0.384 0.288-0.8 0.512-1.248 0.672-0.416 0.192-0.816 0.288-1.2 0.288-0.704 0-1.376-0.336-2.016-1.008s-1.296-1.728-1.968-3.168c-0.64-1.472-1.328-3.36-2.064-5.664-0.704-2.336-1.488-5.136-2.352-8.4h-1.056c-0.352 0-0.624-0.032-0.816-0.096-0.224-0.128-0.464-0.352-0.72-0.672-0.864 1.856-1.632 3.6-2.304 5.232s-1.28 3.216-1.824 4.752c-0.512 1.504-0.976 2.976-1.392 4.416-0.384 1.408-0.72 2.848-1.008 4.32-1.088-0.256-2.032-0.72-2.832-1.392s-1.552-1.616-2.256-2.832c0.128-0.288 0.256-0.56 0.384-0.816 0.16-0.288 0.352-0.672 0.576-1.152 0.224-0.512 0.496-1.152 0.816-1.92 0.352-0.768 0.8-1.792 1.344-3.072 0.576-1.28 1.248-2.848 2.016-4.704 0.8-1.856 1.76-4.112 2.88-6.768 0.512-1.184 0.944-2.224 1.296-3.12 0.384-0.896 0.72-1.744 1.008-2.544 0.288-0.832 0.544-1.648 0.768-2.448 0.256-0.832 0.512-1.776 0.768-2.832-1.472 0.512-2.848 1.088-4.128 1.728-1.248 0.608-2.288 1.264-3.12 1.968-0.288-0.192-0.592-0.48-0.912-0.864-0.288-0.384-0.56-0.8-0.816-1.248-0.256-0.48-0.48-0.96-0.672-1.44s-0.304-0.912-0.336-1.296c0.96-0.64 2.128-1.232 3.504-1.776 1.408-0.544 2.896-1.008 4.464-1.392 1.568-0.416 3.168-0.736 4.8-0.96s3.152-0.336 4.56-0.336c3.84 0 6.816 0.8 8.928 2.4 2.112 1.568 3.168 3.728 3.168 6.48zm-11.712-4.032c-0.224 0.288-0.576 0.864-1.056 1.728s-1.04 1.904-1.68 3.12c-0.608 1.184-1.264 2.48-1.968 3.888-0.672 1.408-1.328 2.8-1.968 4.176 2.4 0 4.608-0.224 6.624-0.672s3.76-1.072 5.232-1.872c1.472-0.832 2.608-1.792 3.408-2.88 0.832-1.12 1.248-2.352 1.248-3.696 0-1.6-0.576-2.816-1.728-3.648-1.152-0.864-2.928-1.296-5.328-1.296-0.544 0-1.088 0.032-1.632 0.096-0.544 0.032-1.12 0.08-1.728 0.144z" fill="#9c5f61"/>
 <path d="m43.188 19.424c-0.096 1.488-0.36 2.772-0.792 3.852-0.432 1.056-1.056 1.992-1.872 2.808-0.792 0.792-1.764 1.512-2.916 2.16s-2.496 1.272-4.032 1.872c0 0.144-0.012 0.3-0.036 0.468v0.468c0 0.312 0.024 0.636 0.072 0.972s0.132 0.648 0.252 0.936 0.288 0.528 0.504 0.72c0.216 0.168 0.492 0.252 0.828 0.252 0.648 0 1.284-0.144 1.908-0.432s1.212-0.636 1.764-1.044c0.576-0.432 1.104-0.888 1.584-1.368 0.504-0.504 0.948-0.96 1.332-1.368 0.24 0.216 0.444 0.42 0.612 0.612-1.08 1.44-2.268 2.64-3.564 3.6-1.272 0.936-2.484 1.536-3.636 1.8-1.656-0.192-2.952-0.792-3.888-1.8-0.912-1.032-1.368-2.268-1.368-3.708 0-0.984 0.132-1.98 0.396-2.988 0.288-1.032 0.672-2.016 1.152-2.952 0.504-0.96 1.08-1.86 1.728-2.7 0.672-0.84 1.38-1.572 2.124-2.196 0.768-0.624 1.548-1.116 2.34-1.476 0.816-0.36 1.62-0.54 2.412-0.54 1.104 0.144 2.136 0.828 3.096 2.052zm-2.484 1.188c-0.648 0.096-1.32 0.36-2.016 0.792s-1.356 1.008-1.98 1.728c-0.6 0.72-1.152 1.56-1.656 2.52s-0.9 1.992-1.188 3.096c1.92-0.96 3.516-2.136 4.788-3.528 1.272-1.416 1.956-2.952 2.052-4.608zm5.904-12.528c0.24 0.144 0.48 0.384 0.72 0.72 0.264 0.312 0.492 0.672 0.684 1.08 0.216 0.384 0.384 0.78 0.504 1.188s0.18 0.78 0.18 1.116c-0.912 0.624-1.716 1.14-2.412 1.548-0.672 0.408-1.284 0.744-1.836 1.008-0.528 0.24-0.996 0.42-1.404 0.54-0.408 0.096-0.804 0.144-1.188 0.144-0.768 0-1.428-0.228-1.98-0.684 0.528-0.192 1.08-0.492 1.656-0.9s1.152-0.9 1.728-1.476c0.6-0.576 1.176-1.224 1.728-1.944 0.576-0.72 1.116-1.5 1.62-2.34zm-0.0194 13.5c0-0.432 0.024-0.84 0.072-1.224 0.072-0.384 0.204-0.708 0.396-0.972 0.192-0.288 0.456-0.504 0.792-0.648 0.336-0.168 0.78-0.252 1.332-0.252 0.336 0 0.708 0.036 1.116 0.108 0.432 0.072 0.744 0.204 0.936 0.396-0.096 0.408-0.18 0.768-0.252 1.08-0.048 0.312-0.096 0.66-0.144 1.044-0.024 0.36-0.048 0.804-0.072 1.332-0.024 0.504-0.048 1.164-0.072 1.98-0.048 1.632-0.132 3.096-0.252 4.392-0.096 1.272-0.336 2.544-0.72 3.816 0 0.096 0.036 0.144 0.108 0.144 0.36-0.264 0.768-0.648 1.224-1.152s0.936-1.068 1.44-1.692c0.504-0.648 1.008-1.332 1.512-2.052s0.972-1.428 1.404-2.124c0.576-1.008 1.212-2.268 1.908-3.78s1.272-3.132 1.728-4.86c0.144 0 0.324 0.036 0.54 0.108 0.24 0.048 0.468 0.12 0.684 0.216 0.24 0.072 0.444 0.156 0.612 0.252 0.192 0.096 0.324 0.18 0.396 0.252-0.048 1.032-0.3 2.088-0.756 3.168-0.432 1.08-0.96 2.124-1.584 3.132s-1.284 1.956-1.98 2.844-1.332 1.656-1.908 2.304c-1.152 1.344-2.316 2.544-3.492 3.6-1.152 1.056-2.532 2.076-4.14 3.06-0.624-0.24-1.116-0.564-1.476-0.972-0.36-0.384-0.54-0.792-0.54-1.224 0-0.288 0.06-0.612 0.18-0.972 0.144-0.384 0.3-0.864 0.468-1.44 0.168-0.6 0.312-1.344 0.432-2.232 0.144-0.888 0.216-2.016 0.216-3.384 0-0.792-0.024-1.584-0.072-2.376-0.024-0.816-0.036-1.44-0.036-1.872zm14.193 10.332c0-0.216 0.012-0.48 0.036-0.792 0.048-0.336 0.12-0.768 0.216-1.296 0.096-0.552 0.216-1.212 0.36-1.98 0.168-0.768 0.372-1.692 0.612-2.772 0.048-0.24 0.156-0.624 0.324-1.152s0.384-1.08 0.648-1.656c0.288-0.6 0.624-1.176 1.008-1.728 0.408-0.552 0.888-0.96 1.44-1.224 0.408 0.096 0.948 0.348 1.62 0.756 0.672 0.384 1.248 0.924 1.728 1.62-0.552 0.624-1.02 1.248-1.404 1.872-0.36 0.624-0.696 1.272-1.008 1.944-0.288 0.672-0.564 1.368-0.828 2.088-0.24 0.72-0.516 1.476-0.828 2.268-0.264 0.672-0.504 1.368-0.72 2.088-0.216 0.696-0.336 1.308-0.36 1.836 0 0.432-0.012 0.732-0.036 0.9 0 0.192-0.06 0.288-0.18 0.288-0.096 0-0.288-0.06-0.576-0.18s-0.588-0.3-0.9-0.54c-0.288-0.264-0.552-0.588-0.792-0.972s-0.36-0.84-0.36-1.368zm6.876-15.624c0-0.144 0.036-0.36 0.108-0.648-0.12-0.12-0.228-0.3-0.324-0.54-0.072-0.24-0.108-0.456-0.108-0.648 0-0.216 0.024-0.504 0.072-0.864 0.072-0.384 0.156-0.792 0.252-1.224s0.216-0.876 0.36-1.332c0.144-0.48 0.288-0.912 0.432-1.296 0.288 0 0.636 0.084 1.044 0.252 0.432 0.144 0.864 0.348 1.296 0.612 0.432 0.24 0.828 0.516 1.188 0.828 0.36 0.288 0.636 0.564 0.828 0.828-0.264 0.264-0.612 0.636-1.044 1.116-0.432 0.456-0.852 0.948-1.26 1.476-0.408 0.504-0.78 0.984-1.116 1.44s-0.552 0.78-0.648 0.972c-0.288-0.048-0.54-0.168-0.756-0.36-0.216-0.216-0.324-0.42-0.324-0.612zm14.016 3.708c-0.024 0.456-0.108 0.936-0.252 1.44-0.12 0.48-0.276 0.924-0.468 1.332-0.192 0.384-0.396 0.708-0.612 0.972s-0.42 0.396-0.612 0.396c-0.264-0.024-0.42-0.204-0.468-0.54 0-0.072 0.024-0.18 0.072-0.324 0.072-0.168 0.144-0.348 0.216-0.54s0.132-0.384 0.18-0.576c0.072-0.192 0.108-0.36 0.108-0.504 0-0.336-0.084-0.612-0.252-0.828-0.144-0.24-0.348-0.36-0.612-0.36-0.96 0-1.692 0.6-2.196 1.8s-0.756 2.964-0.756 5.292c0 0.24 0.012 0.384 0.036 0.432 0.504-0.024 0.948-0.036 1.332-0.036 0.408-0.024 0.804-0.036 1.188-0.036 0.024 0.048 0.036 0.144 0.036 0.288 0 0.216-0.048 0.372-0.144 0.468-0.552 0.12-0.996 0.228-1.332 0.324-0.312 0.072-0.552 0.144-0.72 0.216s-0.276 0.156-0.324 0.252c-0.024 0.072-0.036 0.18-0.036 0.324v0.576c0.024 0.192 0.036 0.432 0.036 0.72 0 2.016-0.552 3.636-1.656 4.86-1.08 1.224-2.592 1.932-4.536 2.124-0.336-0.024-0.684-0.12-1.044-0.288s-0.708-0.384-1.044-0.648c-0.312-0.264-0.588-0.564-0.828-0.9-0.24-0.312-0.408-0.636-0.504-0.972 0-0.912 0.192-1.776 0.576-2.592 0.384-0.84 0.9-1.572 1.548-2.196 0.672-0.648 1.452-1.164 2.34-1.548 0.912-0.408 1.896-0.648 2.952-0.72 0-0.6-0.06-1.188-0.18-1.764s-0.252-1.128-0.396-1.656c-0.12-0.552-0.24-1.08-0.36-1.584-0.12-0.528-0.18-1.044-0.18-1.548 0-0.648 0.132-1.284 0.396-1.908 0.264-0.648 0.612-1.236 1.044-1.764 0.432-0.552 0.936-1.02 1.512-1.404s1.176-0.648 1.8-0.792c0.264 0.072 0.612 0.288 1.044 0.648 0.456 0.336 0.9 0.72 1.332 1.152s0.816 0.876 1.152 1.332c0.336 0.432 0.54 0.792 0.612 1.08zm-11.88 16.416c0.576-0.24 1.116-0.588 1.62-1.044 0.528-0.456 0.984-0.972 1.368-1.548s0.684-1.188 0.9-1.836c0.24-0.648 0.36-1.284 0.36-1.908-0.48 0.072-1.008 0.3-1.584 0.684-0.576 0.36-1.116 0.804-1.62 1.332-0.504 0.504-0.924 1.032-1.26 1.584s-0.504 1.032-0.504 1.44c0 0.528 0.24 0.96 0.72 1.296zm11.941-4.5c0-0.216 0.012-0.48 0.036-0.792 0.048-0.336 0.12-0.768 0.216-1.296 0.096-0.552 0.216-1.212 0.36-1.98 0.168-0.768 0.372-1.692 0.612-2.772 0.048-0.24 0.156-0.624 0.324-1.152s0.384-1.08 0.648-1.656c0.288-0.6 0.624-1.176 1.008-1.728 0.408-0.552 0.888-0.96 1.44-1.224 0.408 0.096 0.948 0.348 1.62 0.756 0.672 0.384 1.248 0.924 1.728 1.62-0.552 0.624-1.02 1.248-1.404 1.872-0.36 0.624-0.696 1.272-1.008 1.944-0.288 0.672-0.564 1.368-0.828 2.088-0.24 0.72-0.516 1.476-0.828 2.268-0.264 0.672-0.504 1.368-0.72 2.088-0.216 0.696-0.336 1.308-0.36 1.836 0 0.432-0.012 0.732-0.036 0.9 0 0.192-0.06 0.288-0.18 0.288-0.096 0-0.288-0.06-0.576-0.18s-0.588-0.3-0.9-0.54c-0.288-0.264-0.552-0.588-0.792-0.972s-0.36-0.84-0.36-1.368zm6.876-15.624c0-0.144 0.036-0.36 0.108-0.648-0.12-0.12-0.228-0.3-0.324-0.54-0.072-0.24-0.108-0.456-0.108-0.648 0-0.216 0.024-0.504 0.072-0.864 0.072-0.384 0.156-0.792 0.252-1.224s0.216-0.876 0.36-1.332c0.144-0.48 0.288-0.912 0.432-1.296 0.288 0 0.636 0.084 1.044 0.252 0.432 0.144 0.864 0.348 1.296 0.612 0.432 0.24 0.828 0.516 1.188 0.828 0.36 0.288 0.636 0.564 0.828 0.828-0.264 0.264-0.612 0.636-1.044 1.116-0.432 0.456-0.852 0.948-1.26 1.476-0.408 0.504-0.78 0.984-1.116 1.44s-0.552 0.78-0.648 0.972c-0.288-0.048-0.54-0.168-0.756-0.36-0.216-0.216-0.324-0.42-0.324-0.612zm5.8436 19.296c-1.3677-0.144-2.4597-0.744-3.2757-1.8s-1.224-2.4-1.224-4.032c0-0.96 0.144-1.956 0.432-2.988s0.696-2.028 1.224-2.988c0.528-0.984 1.152-1.908 1.872-2.772 0.7197-0.864 1.4997-1.608 2.3397-2.232 1.32-0.984 2.556-1.476 3.708-1.476 0.768 0.408 1.524 1.26 2.268 2.556h0.324c0.096-0.024 0.204-0.036 0.324-0.036 1.272 0 1.908 1.128 1.908 3.384 0 1.512-0.252 2.952-0.756 4.32-0.48 1.344-1.164 2.568-2.052 3.672-0.864 1.104-1.908 2.04-3.132 2.808-1.2 0.744-2.52 1.272-3.96 1.584zm1.836-11.34c-0.408 0.552-0.792 1.152-1.152 1.8s-0.672 1.308-0.936 1.98c-0.264 0.648-0.4677 1.284-0.6117 1.908-0.144 0.6-0.216 1.14-0.216 1.62 0 0.576 0.096 1.128 0.288 1.656 0.1917 0.528 0.4077 0.828 0.6477 0.9 1.08-0.24 2.064-0.684 2.952-1.332 0.912-0.672 1.692-1.5 2.34-2.484 0.672-0.984 1.188-2.1 1.548-3.348 0.384-1.248 0.576-2.58 0.576-3.996 0-0.624-0.036-1.116-0.108-1.476s-0.192-0.672-0.36-0.936c-1.056 0.312-2.004 0.816-2.844 1.512-0.816 0.696-1.524 1.428-2.124 2.196zm15.639-7.38c0.624 0.192 1.212 0.624 1.764 1.296 0.552 0.648 0.96 1.368 1.224 2.16-0.264 0.648-0.672 1.428-1.224 2.34s-1.104 1.848-1.656 2.808c-0.552 0.936-1.056 1.836-1.512 2.7-0.432 0.84-0.684 1.536-0.756 2.088 0.384-0.408 0.804-0.876 1.26-1.404 0.48-0.552 0.936-1.092 1.368-1.62 0.456-0.552 0.876-1.044 1.26-1.476 0.384-0.456 0.684-0.792 0.9-1.008 0.456-0.48 0.996-1.032 1.62-1.656 0.624-0.648 1.272-1.248 1.944-1.8 0.696-0.576 1.392-1.056 2.088-1.44 0.696-0.408 1.332-0.612 1.908-0.612 0.624 0 1.14 0.216 1.548 0.648 0.432 0.408 0.768 0.84 1.008 1.296 0 0.048-0.096 0.12-0.288 0.216-0.168 0.072-0.42 0.3-0.756 0.684-0.336 0.432-0.72 1.032-1.152 1.8-0.408 0.744-0.816 1.56-1.224 2.448-0.384 0.864-0.708 1.752-0.972 2.664s-0.396 1.74-0.396 2.484c0 0.6 0.072 0.984 0.216 1.152 0.168 0.168 0.396 0.252 0.684 0.252 0.264 0 0.54-0.06 0.828-0.18s0.516-0.18 0.684-0.18c0.096 0.048 0.168 0.156 0.216 0.324 0.072 0.144 0.108 0.276 0.108 0.396-0.192 0.168-0.42 0.336-0.684 0.504s-0.54 0.324-0.828 0.468-0.576 0.264-0.864 0.36c-0.264 0.096-0.504 0.144-0.72 0.144-0.696 0-1.272-0.108-1.728-0.324-0.432-0.192-0.78-0.456-1.044-0.792-0.24-0.336-0.408-0.732-0.504-1.188-0.096-0.48-0.144-0.984-0.144-1.512 0-0.288 0.024-0.612 0.072-0.972s0.144-0.78 0.288-1.26c0.144-0.504 0.348-1.092 0.612-1.764 0.264-0.696 0.6-1.524 1.008-2.484-0.048 0-0.372 0.168-0.972 0.504s-1.248 0.852-1.944 1.548c-1.128 1.08-2.148 2.148-3.06 3.204-0.888 1.056-1.8 2.232-2.736 3.528-0.528 0.744-0.996 1.368-1.404 1.872-0.384 0.528-0.72 0.876-1.008 1.044-0.504-0.288-0.876-0.696-1.116-1.224-0.24-0.504-0.42-1.032-0.54-1.584 0-0.456 0.06-1.032 0.18-1.728 0.144-0.696 0.324-1.464 0.54-2.304 0.24-0.864 0.528-1.764 0.864-2.7s0.708-1.872 1.116-2.808c0.912-2.112 1.74-3.768 2.484-4.968 0.768-1.2 1.248-1.848 1.44-1.944zm26.029 3.132c-0.024 0.456-0.108 0.936-0.252 1.44-0.12 0.48-0.276 0.924-0.468 1.332-0.192 0.384-0.396 0.708-0.612 0.972s-0.42 0.396-0.612 0.396c-0.264-0.024-0.42-0.204-0.468-0.54 0-0.072 0.024-0.18 0.072-0.324 0.072-0.168 0.144-0.348 0.216-0.54s0.132-0.384 0.18-0.576c0.072-0.192 0.108-0.36 0.108-0.504 0-0.336-0.084-0.612-0.252-0.828-0.144-0.24-0.348-0.36-0.612-0.36-0.96 0-1.692 0.6-2.196 1.8s-0.756 2.964-0.756 5.292c0 0.24 0.012 0.384 0.036 0.432 0.504-0.024 0.948-0.036 1.332-0.036 0.408-0.024 0.804-0.036 1.188-0.036 0.024 0.048 0.036 0.144 0.036 0.288 0 0.216-0.048 0.372-0.144 0.468-0.552 0.12-0.996 0.228-1.332 0.324-0.312 0.072-0.552 0.144-0.72 0.216s-0.276 0.156-0.324 0.252c-0.024 0.072-0.036 0.18-0.036 0.324v0.576c0.024 0.192 0.036 0.432 0.036 0.72 0 2.016-0.552 3.636-1.656 4.86-1.08 1.224-2.592 1.932-4.536 2.124-0.336-0.024-0.684-0.12-1.044-0.288s-0.708-0.384-1.044-0.648c-0.312-0.264-0.588-0.564-0.828-0.9-0.24-0.312-0.408-0.636-0.504-0.972 0-0.912 0.192-1.776 0.576-2.592 0.384-0.84 0.9-1.572 1.548-2.196 0.672-0.648 1.452-1.164 2.34-1.548 0.912-0.408 1.896-0.648 2.952-0.72 0-0.6-0.06-1.188-0.18-1.764s-0.252-1.128-0.396-1.656c-0.12-0.552-0.24-1.08-0.36-1.584-0.12-0.528-0.18-1.044-0.18-1.548 0-0.648 0.132-1.284 0.396-1.908 0.264-0.648 0.612-1.236 1.044-1.764 0.432-0.552 0.936-1.02 1.512-1.404s1.176-0.648 1.8-0.792c0.264 0.072 0.612 0.288 1.044 0.648 0.456 0.336 0.9 0.72 1.332 1.152s0.816 0.876 1.152 1.332c0.336 0.432 0.54 0.792 0.612 1.08zm-11.88 16.416c0.576-0.24 1.116-0.588 1.62-1.044 0.528-0.456 0.984-0.972 1.368-1.548s0.684-1.188 0.9-1.836c0.24-0.648 0.36-1.284 0.36-1.908-0.48 0.072-1.008 0.3-1.584 0.684-0.576 0.36-1.116 0.804-1.62 1.332-0.504 0.504-0.924 1.032-1.26 1.584s-0.504 1.032-0.504 1.44c0 0.528 0.24 0.96 0.72 1.296z" fill="#9c5f61"/>
 <path d="m75.788 72.823c-1.596-0.476-2.674-0.938-3.234-1.386-0.56-0.42-0.84-1.008-0.84-1.764 0-0.84 0.196-2.016 0.588-3.528 0.392-1.54 0.896-3.248 1.512-5.124 0.644-1.876 1.372-3.836 2.184-5.88s1.638-4.004 2.478-5.88 1.652-3.584 2.436-5.124c0.812-1.568 1.526-2.786 2.142-3.654l-0.294-1.764c0.392 0 0.938 0.098 1.638 0.294s1.4 0.434 2.1 0.714c0.728 0.28 1.358 0.574 1.89 0.882 0.56 0.28 0.868 0.518 0.924 0.714-0.14 0.672-0.252 1.694-0.336 3.066-0.084 1.344-0.126 2.786-0.126 4.326 0 3.052 0.112 6.048 0.336 8.988 0.252 2.912 0.812 5.88 1.68 8.904 0.448-2.24 0.924-4.466 1.428-6.678 0.532-2.24 1.078-4.368 1.638-6.384 0.56-2.044 1.12-3.934 1.68-5.67s1.092-3.248 1.596-4.536c0.532-1.316 1.022-2.338 1.47-3.066 0.448-0.756 0.854-1.162 1.218-1.218 0.308 0.056 0.644 0.182 1.008 0.378 0.364 0.168 0.714 0.378 1.05 0.63s0.644 0.532 0.924 0.84 0.504 0.616 0.672 0.924c-0.896 0.364-1.792 1.218-2.688 2.562-0.868 1.344-1.708 2.982-2.52 4.914-0.784 1.904-1.526 3.976-2.226 6.216-0.672 2.24-1.274 4.452-1.806 6.636-0.504 2.156-0.91 4.158-1.218 6.006-0.28 1.848-0.434 3.332-0.462 4.452 0 0.056 0.014 0.098 0.042 0.126-0.084 0.028-0.182 0.042-0.294 0.042h-0.252c-1.288 0-2.436-0.168-3.444-0.504-0.98-0.308-1.624-0.756-1.932-1.344-0.588-2.352-1.078-4.62-1.47-6.804s-0.728-4.368-1.008-6.552c-0.252-2.184-0.462-4.382-0.63-6.594-0.14-2.24-0.252-4.578-0.336-7.014-0.532 0.84-1.092 1.946-1.68 3.318-0.588 1.344-1.162 2.828-1.722 4.452s-1.106 3.332-1.638 5.124c-0.504 1.792-0.952 3.542-1.344 5.25s-0.7 3.332-0.924 4.872c-0.224 1.512-0.336 2.828-0.336 3.948v1.26c0.028 0.252 0.07 0.462 0.126 0.63z" fill="#486951"/>
 <path d="m111.72 56.572c0.24 0 0.516 0.048 0.828 0.144 0.336 0.072 0.636 0.18 0.9 0.324 0.264 0.12 0.48 0.252 0.648 0.396 0.192 0.144 0.288 0.276 0.288 0.396-0.48 1.008-0.924 2.028-1.332 3.06-0.408 1.008-0.756 1.98-1.044 2.916s-0.516 1.812-0.684 2.628c-0.144 0.816-0.216 1.524-0.216 2.124 0 0.672 0.072 1.236 0.216 1.692 0.144 0.432 0.384 0.744 0.72 0.936-0.288 0.192-0.66 0.348-1.116 0.468s-0.864 0.18-1.224 0.18c-1.296 0-1.944-0.888-1.944-2.664 0-1.368 0.456-3.24 1.368-5.616-0.48 1.104-1.032 2.148-1.656 3.132-0.624 0.96-1.26 1.812-1.908 2.556s-1.308 1.356-1.98 1.836c-0.648 0.456-1.248 0.732-1.8 0.828-0.888-0.048-1.608-0.468-2.16-1.26-0.552-0.816-0.828-1.848-0.828-3.096 0-1.344 0.288-2.76 0.864-4.248s1.308-2.868 2.196-4.14c0.912-1.272 1.896-2.328 2.952-3.168 1.056-0.864 2.076-1.32 3.06-1.368 0.24 0.072 0.504 0.216 0.792 0.432 0.312 0.216 0.6 0.468 0.864 0.756 0.288 0.288 0.528 0.588 0.72 0.9 0.192 0.288 0.3 0.54 0.324 0.756-0.96 0.144-1.956 0.612-2.988 1.404-1.008 0.792-1.932 1.752-2.772 2.88-0.816 1.104-1.488 2.292-2.016 3.564s-0.792 2.46-0.792 3.564c0 0.456 0.168 0.744 0.504 0.864 0.696-0.144 1.5-0.732 2.412-1.764 0.912-1.056 2.016-2.676 3.312-4.86 0.24-0.432 0.504-0.912 0.792-1.44 0.312-0.528 0.624-1.08 0.936-1.656s0.612-1.152 0.9-1.728c0.312-0.6 0.6-1.176 0.864-1.728zm6.017 0.756c-0.12-0.144-0.228-0.444-0.325-0.9-0.095-0.48-0.143-0.888-0.143-1.224 0.624 0.048 1.224 0.096 1.8 0.144 0.576 0.024 1.104 0.048 1.584 0.072 0.36-0.72 0.744-1.428 1.152-2.124 0.432-0.72 0.84-1.368 1.224-1.944 0.408-0.6 0.78-1.104 1.116-1.512 0.36-0.408 0.636-0.672 0.828-0.792 0.24 0 0.54 0.048 0.9 0.144 0.384 0.072 0.768 0.18 1.152 0.324 0.384 0.12 0.732 0.252 1.044 0.396s0.528 0.288 0.648 0.432c-0.72 0.912-1.344 1.764-1.872 2.556-0.504 0.768-1.056 1.656-1.656 2.664 0.48 0 0.96-0.012 1.44-0.036 0.504-0.024 1.008-0.06 1.512-0.108 0.12 0.12 0.216 0.276 0.288 0.468 0.072 0.168 0.108 0.348 0.108 0.54-1.176 0.432-2.604 0.672-4.284 0.72-0.6 1.152-1.14 2.304-1.62 3.456-0.456 1.128-0.852 2.22-1.188 3.276-0.312 1.056-0.564 2.052-0.756 2.988-0.168 0.936-0.252 1.776-0.252 2.52 0 1.056 0.396 1.644 1.187 1.764 0.72-0.096 1.405-0.276 2.053-0.54s1.224-0.6 1.728-1.008c0.144 0.216 0.228 0.396 0.252 0.54-0.144 0.216-0.396 0.468-0.756 0.756-0.336 0.288-0.708 0.564-1.116 0.828-0.408 0.288-0.804 0.528-1.188 0.72s-0.672 0.3-0.864 0.324c-0.6-0.024-1.2-0.156-1.8-0.396s-1.152-0.54-1.656-0.9c-0.48-0.36-0.876-0.756-1.188-1.188-0.312-0.456-0.469-0.9-0.469-1.332 0-0.576 0.073-1.296 0.217-2.16 0.168-0.888 0.396-1.848 0.684-2.88s0.624-2.112 1.008-3.24 0.804-2.244 1.26-3.348zm20.324 12.996c-0.456-0.384-0.768-0.864-0.936-1.44-0.144-0.576-0.216-1.068-0.216-1.476 0-0.504 0.06-0.936 0.18-1.296-0.096 0-0.312 0.192-0.648 0.576s-0.708 0.84-1.116 1.368c-0.384 0.528-0.768 1.044-1.152 1.548s-0.672 0.876-0.864 1.116c-0.312 0.336-0.612 0.6-0.9 0.792-0.264 0.192-0.48 0.3-0.648 0.324-0.384-0.024-0.792-0.108-1.224-0.252-0.408-0.12-0.804-0.3-1.188-0.54-0.36-0.24-0.684-0.528-0.972-0.864-0.264-0.336-0.444-0.72-0.54-1.152 0-0.672 0.012-1.224 0.036-1.656 0.048-0.432 0.132-0.9 0.252-1.404 0.216-0.912 0.528-1.944 0.936-3.096 0.432-1.152 0.924-2.28 1.476-3.384 0.552-1.128 1.164-2.172 1.836-3.132 0.696-0.984 1.428-1.752 2.196-2.304 0.216 0 0.468 0.024 0.756 0.072 0.288 0.024 0.576 0.084 0.864 0.18 0.312 0.096 0.6 0.216 0.864 0.36 0.288 0.12 0.528 0.288 0.72 0.504-0.216 0.24-0.768 1.044-1.656 2.412-0.864 1.368-1.836 3.336-2.916 5.904-0.12 0.264-0.264 0.648-0.432 1.152s-0.336 1.032-0.504 1.584-0.312 1.092-0.432 1.62c-0.096 0.528-0.144 0.948-0.144 1.26 0 0.192 0.024 0.336 0.072 0.432 0.072 0.096 0.132 0.168 0.18 0.216 0.36-0.144 0.816-0.54 1.368-1.188s1.32-1.644 2.304-2.988c0.24-0.336 0.516-0.72 0.828-1.152 0.336-0.432 0.672-0.888 1.008-1.368 0.336-0.504 0.648-1.02 0.936-1.548 0.312-0.528 0.564-1.056 0.756-1.584 0.096-0.288 0.216-0.624 0.36-1.008 0.168-0.408 0.36-0.828 0.576-1.26 0.24-0.432 0.504-0.864 0.792-1.296 0.312-0.456 0.672-0.876 1.08-1.26 0.312 0 0.648 0.036 1.008 0.108s0.696 0.168 1.008 0.288c0.336 0.096 0.624 0.216 0.864 0.36 0.24 0.12 0.42 0.252 0.54 0.396-0.432 1.056-0.912 2.1-1.44 3.132s-1.02 2.052-1.476 3.06c-0.456 0.984-0.84 1.968-1.152 2.952s-0.468 1.944-0.468 2.88c0 0.504 0.036 0.948 0.108 1.332 0.096 0.36 0.192 0.672 0.288 0.936 0.096 0.24 0.18 0.444 0.252 0.612 0.096 0.168 0.144 0.312 0.144 0.432 0 0.024-0.024 0.06-0.072 0.108-0.024 0.024-0.048 0.036-0.072 0.036-0.168 0-0.384-0.036-0.648-0.108s-0.564-0.18-0.9-0.324c-0.312-0.12-0.636-0.264-0.972-0.432-0.312-0.168-0.612-0.348-0.9-0.54zm7.133 0.072c0.12-0.696 0.324-1.608 0.612-2.736 0.312-1.152 0.672-2.364 1.08-3.636 0.408-1.296 0.84-2.592 1.296-3.888s0.9-2.46 1.332-3.492c0.312-0.744 0.588-1.32 0.828-1.728 0.24-0.432 0.504-0.792 0.792-1.08 0.336 0.048 0.684 0.132 1.044 0.252s0.708 0.264 1.044 0.432 0.636 0.348 0.9 0.54c0.264 0.168 0.468 0.336 0.612 0.504-0.648 0.768-1.224 1.644-1.728 2.628-0.48 0.984-0.972 2.244-1.476 3.78 1.296-1.152 2.436-2.256 3.42-3.312 1.008-1.056 1.944-2.232 2.808-3.528 0.144-0.12 0.396-0.18 0.756-0.18 0.336 0 0.66 0.06 0.972 0.18 0.312 0.096 0.528 0.24 0.648 0.432-0.432 1.152-0.648 2.292-0.648 3.42 0 1.056 0.156 1.848 0.468 2.376-0.024 0.144-0.192 0.42-0.504 0.828-0.288 0.408-0.612 0.792-0.972 1.152-0.648-0.336-1.224-0.792-1.728-1.368-0.504-0.6-0.876-1.248-1.116-1.944-1.128 0.792-2.088 1.572-2.88 2.34-0.792 0.744-1.476 1.584-2.052 2.52-0.552 0.912-1.032 1.968-1.44 3.168-0.384 1.2-0.756 2.628-1.116 4.284-0.216-0.024-0.48-0.108-0.792-0.252-0.288-0.12-0.588-0.276-0.9-0.468-0.288-0.192-0.552-0.396-0.792-0.612s-0.396-0.42-0.468-0.612zm28.271-14.184c-0.096 1.488-0.36 2.772-0.792 3.852-0.432 1.056-1.056 1.992-1.872 2.808-0.792 0.792-1.764 1.512-2.916 2.16s-2.496 1.272-4.032 1.872c0 0.144-0.012 0.3-0.036 0.468v0.468c0 0.312 0.024 0.636 0.072 0.972s0.132 0.648 0.252 0.936 0.288 0.528 0.504 0.72c0.216 0.168 0.492 0.252 0.828 0.252 0.648 0 1.284-0.144 1.908-0.432s1.212-0.636 1.764-1.044c0.576-0.432 1.104-0.888 1.584-1.368 0.504-0.504 0.948-0.96 1.332-1.368 0.24 0.216 0.444 0.42 0.612 0.612-1.08 1.44-2.268 2.64-3.564 3.6-1.272 0.936-2.484 1.536-3.636 1.8-1.656-0.192-2.952-0.792-3.888-1.8-0.912-1.032-1.368-2.268-1.368-3.708 0-0.984 0.132-1.98 0.396-2.988 0.288-1.032 0.672-2.016 1.152-2.952 0.504-0.96 1.08-1.86 1.728-2.7 0.672-0.84 1.38-1.572 2.124-2.196 0.768-0.624 1.548-1.116 2.34-1.476 0.816-0.36 1.62-0.54 2.412-0.54 1.104 0.144 2.136 0.828 3.096 2.052zm-2.484 1.188c-0.648 0.096-1.32 0.36-2.016 0.792s-1.356 1.008-1.98 1.728c-0.6 0.72-1.152 1.56-1.656 2.52s-0.9 1.992-1.188 3.096c1.92-0.96 3.516-2.136 4.788-3.528 1.272-1.416 1.956-2.952 2.052-4.608z" fill="#486951"/>
</svg>
